<svg width="512" height="512" viewBox="0 0 512 512" fill="none" xmlns="http://www.w3.org/2000/svg">
  <path d="M256 512C397.385 512 512 397.385 512 256C512 114.615 397.385 0 256 0C114.615 0 0 114.615 0 256C0 397.385 114.615 512 256 512Z" fill="#00FFFF"/>
  <path d="M256 426C338.843 426 406 358.843 406 276C406 193.157 338.843 126 256 126C173.157 126 106 193.157 106 276C106 358.843 173.157 426 256 426Z" fill="white"/>
  <ellipse cx="165" cy="235" rx="30" ry="45" fill="#00FFFF"/>
  <ellipse cx="250" cy="200" rx="35" ry="50" fill="#00FFFF"/>
  <path d="M340 340L490 350C490 350 370 420 340 390L340 340Z" fill="#00FFFF"/>
</svg>
